<?xml version="1.0" standalone="no"?>
<!DOCTYPE svg PUBLIC "-//W3C//DTD SVG 20010904//EN"
 "http://www.w3.org/TR/2001/REC-SVG-20010904/DTD/svg10.dtd">
<svg version="1.0" xmlns="http://www.w3.org/2000/svg"
 width="600.000000pt" height="600.000000pt" viewBox="0 0 600.000000 600.000000"
 preserveAspectRatio="xMidYMid meet">
<metadata>
Created by potrace 1.16, written by Peter Selinger 2001-2019
</metadata>
<g transform="translate(0.000000,600.000000) scale(0.100000,-0.100000)"
fill="#000000" stroke="none">
<path d="M0 3000 l0 -3000 3000 0 3000 0 0 3000 0 3000 -3000 0 -3000 0 0
-3000z m3419 2099 c62 -36 131 -103 166 -163 14 -24 34 -80 46 -126 39 -158
112 -272 286 -447 145 -146 232 -192 400 -213 169 -21 227 -71 268 -231 20
-77 15 -119 -20 -165 -42 -55 -97 -78 -185 -76 -174 4 -252 -33 -408 -190 -62
-63 -124 -131 -138 -152 -41 -60 -65 -142 -75 -250 -11 -124 -38 -185 -114
-255 -130 -118 -292 -119 -397 -3 -96 107 -89 258 19 365 58 59 121 87 221 98
95 10 161 29 237 66 59 29 273 241 328 324 92 138 84 313 -20 471 -55 81 -308
354 -376 404 -66 49 -140 79 -228 93 -118 19 -210 87 -257 189 -19 43 -23 65
-20 110 12 161 132 228 267 151z m-1355 -255 c8 -21 -27 -117 -64 -175 -69
-107 -221 -219 -319 -235 -48 -8 -62 11 -40 54 21 39 266 289 332 338 57 42
80 47 91 18z m562 -602 c47 -24 105 -84 130 -132 9 -20 19 -67 22 -108 4 -66
2 -78 -27 -136 -58 -119 -144 -170 -311 -185 -182 -16 -249 -50 -407 -204
-121 -118 -157 -170 -180 -262 -14 -58 -15 -80 -5 -146 13 -89 52 -182 107
-254 73 -95 289 -316 347 -355 69 -46 145 -76 227 -89 115 -19 212 -88 257
-185 45 -97 22 -210 -54 -261 -126 -86 -345 65 -396 272 -20 79 -70 188 -118
255 -19 26 -80 97 -136 157 -151 162 -264 231 -437 268 -168 35 -239 100 -275
251 -14 62 -9 102 21 144 35 49 89 68 200 68 105 0 178 17 249 57 57 33 232
203 271 265 42 65 78 175 85 262 9 97 36 165 90 225 101 113 232 148 340 93z
m1694 -1652 c12 -8 12 -14 -3 -45 -33 -68 -360 -385 -398 -385 -23 0 -29 40
-13 87 47 137 179 275 321 332 54 23 72 25 93 11z m-3530 -1190 c0 -46 -5 -48
-110 -52 l-65 -3 -5 -165 -5 -165 -35 0 -35 0 -5 165 -5 165 -75 3 c-41 2 -80
8 -87 14 -14 11 -18 60 -6 71 3 4 102 7 220 7 l213 0 0 -40z m508 1 c2 -20 -2
-37 -10 -42 -15 -10 -388 -12 -412 -3 -16 6 -23 64 -9 78 4 3 102 5 217 4
l211 -3 3 -34z m510 6 c6 -52 -8 -57 -152 -57 -144 0 -163 -6 -191 -60 -31
-61 -8 -151 47 -182 14 -7 76 -14 158 -18 l135 -5 0 -35 0 -35 -135 -3 c-169
-4 -189 0 -234 44 -48 47 -66 93 -66 171 0 84 35 153 94 189 39 23 47 24 191
22 l150 -3 3 -28z m142 -26 c0 -87 7 -91 149 -91 84 0 122 4 129 13 6 7 12 40
14 72 l3 60 35 0 35 0 0 -210 0 -210 -35 0 -35 0 -5 90 -5 90 -134 3 c-101 2
-136 -1 -143 -10 -4 -7 -8 -50 -8 -95 l0 -83 -35 0 c-19 0 -35 5 -35 10 0 6 0
98 0 205 0 107 0 200 0 205 0 6 16 10 35 10 l35 0 0 -59z m1183 39 c54 -43 55
-141 1 -191 -24 -23 -32 -24 -152 -24 l-127 0 -3 43 -3 42 104 0 c110 0 146
12 134 44 -6 15 -23 16 -139 14 l-133 -3 -5 -165 -5 -165 -35 0 -35 0 -3 200
c-1 110 0 205 2 212 4 10 49 13 189 13 171 0 186 -2 210 -20z m187 -110 c4
-98 9 -132 24 -156 31 -52 49 -58 199 -62 l137 -4 0 -39 0 -39 -152 0 c-133 0
-157 3 -184 19 -38 23 -77 74 -93 120 -12 37 -15 273 -4 285 4 4 21 6 38 4
l30 -3 5 -125z m738 38 c103 -235 139 -324 135 -330 -2 -5 -21 -8 -42 -8 l-39
0 -62 145 c-35 80 -67 148 -73 152 -13 8 -21 -8 -87 -162 l-55 -130 -43 -3
c-27 -2 -42 1 -42 8 0 15 159 390 173 408 5 6 29 12 52 12 l43 0 40 -92z m416
-48 c94 -103 132 -138 140 -130 7 6 12 61 13 133 2 67 3 125 3 130 0 4 16 7
35 7 l35 0 0 -215 0 -215 -39 0 c-35 0 -45 7 -102 67 -177 187 -203 213 -211
205 -4 -4 -9 -66 -10 -137 l-3 -130 -35 0 -35 0 -3 200 c-1 110 0 205 2 212 3
8 22 13 44 13 36 0 44 -7 166 -140z m734 107 c6 -55 -3 -57 -213 -57 -107 0
-200 3 -209 6 -11 4 -16 19 -16 45 l0 39 218 -2 217 -3 3 -28z m510 -3 c4 -43
-13 -53 -98 -56 l-75 -3 -5 -165 -5 -165 -37 -3 -38 -3 0 155 c0 85 -3 161 -6
170 -5 12 -21 16 -74 16 -92 0 -100 4 -100 51 l0 39 218 -2 217 -3 3 -31z
m-4420 -153 c2 -20 -2 -37 -10 -42 -15 -10 -388 -12 -412 -3 -16 6 -23 64 -9
78 4 3 102 5 217 4 l211 -3 3 -34z m3910 0 c2 -20 -2 -37 -10 -42 -15 -10
-388 -12 -412 -3 -16 6 -23 64 -9 78 4 3 102 5 217 4 l211 -3 3 -34z m-3913
-201 l0 -35 -217 -3 -218 -2 0 40 0 40 218 -2 217 -3 0 -35z m3910 0 l0 -35
-217 -3 -218 -2 0 40 0 40 218 -2 217 -3 0 -35z"/>
</g>
</svg>
